<svg viewBox="0 0 900 700" xmlns="http://www.w3.org/2000/svg">
  <!-- Background styling -->
  <defs>
    <linearGradient id="bg-gradient" x1="0%" y1="0%" x2="100%" y2="100%">
      <stop offset="0%" style="stop-color:#f9f9f9;stop-opacity:1" />
      <stop offset="100%" style="stop-color:#f1f1f1;stop-opacity:1" />
    </linearGradient>
    <!-- Database icon pattern -->
    <pattern id="db-pattern" width="50" height="50" patternUnits="userSpaceOnUse">
      <path d="M0 5 Q25 0, 50 5 L50 40 Q25 45, 0 40 Z" fill="#e1e1e1" stroke="#ccc" stroke-width="1"/>
    </pattern>
  </defs>
  
  <!-- Main background -->
  <rect width="900" height="700" fill="url(#bg-gradient)" />
  
  <!-- Title -->
  <text x="450" y="40" font-family="Arial" font-size="24" font-weight="bold" text-anchor="middle" fill="#333">Feature Store Integration with Model Registry</text>
  <text x="450" y="70" font-family="Arial" font-size="16" text-anchor="middle" fill="#666">Architecture Diagram</text>
  
  <!-- Database Schema Section -->
  <rect x="50" y="100" width="800" height="270" rx="10" ry="10" fill="#fff" stroke="#ccc" stroke-width="2"/>
  <text x="70" y="130" font-family="Arial" font-size="18" font-weight="bold" fill="#333">Database Schema</text>
  
  <!-- Model Registry Tables -->
  <rect x="70" y="150" width="340" height="200" rx="5" ry="5" fill="#f0f8ff" stroke="#4682b4" stroke-width="1"/>
  <text x="240" y="170" font-family="Arial" font-size="16" font-weight="bold" text-anchor="middle" fill="#333">Model Registry Tables</text>
  
  <rect x="90" y="180" width="140" height="30" rx="3" ry="3" fill="#4682b4" stroke="#333" stroke-width="1"/>
  <text x="160" y="200" font-family="Arial" font-size="12" text-anchor="middle" fill="#fff">MODEL_REGISTRY</text>
  
  <rect x="90" y="220" width="140" height="30" rx="3" ry="3" fill="#4682b4" stroke="#333" stroke-width="1"/>
  <text x="160" y="240" font-family="Arial" font-size="12" text-anchor="middle" fill="#fff">MODEL_PARAMETERS</text>
  
  <rect x="90" y="260" width="140" height="30" rx="3" ry="3" fill="#4682b4" stroke="#333" stroke-width="1"/>
  <text x="160" y="280" font-family="Arial" font-size="12" text-anchor="middle" fill="#fff">MODEL_SOURCE_TABLES</text>
  
  <rect x="90" y="300" width="140" height="30" rx="3" ry="3" fill="#4682b4" stroke="#333" stroke-width="1"/>
  <text x="160" y="320" font-family="Arial" font-size="12" text-anchor="middle" fill="#fff">MODEL_VALIDATION_RESULTS</text>
  
  <rect x="250" y="180" width="140" height="30" rx="3" ry="3" fill="#4682b4" stroke="#333" stroke-width="1"/>
  <text x="320" y="200" font-family="Arial" font-size="12" text-anchor="middle" fill="#fff">MODEL_TYPE</text>
  
  <rect x="250" y="220" width="140" height="30" rx="3" ry="3" fill="#4682b4" stroke="#333" stroke-width="1"/>
  <text x="320" y="240" font-family="Arial" font-size="12" text-anchor="middle" fill="#fff">MODEL_COLUMN_DETAILS</text>
  
  <rect x="250" y="260" width="140" height="30" rx="3" ry="3" fill="#4682b4" stroke="#333" stroke-width="1"/>
  <text x="320" y="280" font-family="Arial" font-size="12" text-anchor="middle" fill="#fff">MODEL_TABLE_USAGE</text>
  
  <rect x="250" y="300" width="140" height="30" rx="3" ry="3" fill="#4682b4" stroke="#333" stroke-width="1"/>
  <text x="320" y="320" font-family="Arial" font-size="12" text-anchor="middle" fill="#fff">MODEL_DATA_QUALITY_LOG</text>
  
  <!-- Feature Store Tables -->
  <rect x="490" y="150" width="340" height="200" rx="5" ry="5" fill="#f0fff0" stroke="#228b22" stroke-width="1"/>
  <text x="660" y="170" font-family="Arial" font-size="16" font-weight="bold" text-anchor="middle" fill="#333">Feature Store Tables</text>
  
  <rect x="510" y="180" width="140" height="30" rx="3" ry="3" fill="#228b22" stroke="#333" stroke-width="1"/>
  <text x="580" y="200" font-family="Arial" font-size="12" text-anchor="middle" fill="#fff">FEATURE_REGISTRY</text>
  
  <rect x="510" y="220" width="140" height="30" rx="3" ry="3" fill="#228b22" stroke="#333" stroke-width="1"/>
  <text x="580" y="240" font-family="Arial" font-size="12" text-anchor="middle" fill="#fff">FEATURE_TRANSFORMATIONS</text>
  
  <rect x="510" y="260" width="140" height="30" rx="3" ry="3" fill="#228b22" stroke="#333" stroke-width="1"/>
  <text x="580" y="280" font-family="Arial" font-size="12" text-anchor="middle" fill="#fff">FEATURE_SOURCE_TABLES</text>
  
  <rect x="510" y="300" width="140" height="30" rx="3" ry="3" fill="#228b22" stroke="#333" stroke-width="1"/>
  <text x="580" y="320" font-family="Arial" font-size="12" text-anchor="middle" fill="#fff">FEATURE_VALUES</text>
  
  <rect x="670" y="180" width="140" height="30" rx="3" ry="3" fill="#228b22" stroke="#333" stroke-width="1"/>
  <text x="740" y="200" font-family="Arial" font-size="12" text-anchor="middle" fill="#fff">FEATURE_STATS</text>
  
  <rect x="670" y="220" width="140" height="30" rx="3" ry="3" fill="#228b22" stroke="#333" stroke-width="1"/>
  <text x="740" y="240" font-family="Arial" font-size="12" text-anchor="middle" fill="#fff">FEATURE_DEPENDENCIES</text>
  
  <rect x="670" y="260" width="140" height="30" rx="3" ry="3" fill="#9c3" stroke="#333" stroke-width="1"/>
  <text x="740" y="280" font-family="Arial" font-size="12" text-anchor="middle" fill="#fff">FEATURE_MODEL_MAPPING</text>
  
  <rect x="670" y="300" width="140" height="30" rx="3" ry="3" fill="#228b22" stroke="#333" stroke-width="1"/>
  <text x="740" y="320" font-family="Arial" font-size="12" text-anchor="middle" fill="#fff">FEATURE_REFRESH_LOG</text>
  
  <!-- Integration Arrow -->
  <path d="M430 270 L480 270" stroke="#9c3" stroke-width="3" stroke-dasharray="5,3" />
  <polygon points="470,265 480,270 470,275" fill="#9c3"/>
  
  <!-- Folder Structure Section -->
  <rect x="50" y="390" width="800" height="270" rx="10" ry="10" fill="#fff" stroke="#ccc" stroke-width="2"/>
  <text x="70" y="420" font-family="Arial" font-size="18" font-weight="bold" fill="#333">Folder Structure</text>
  
  <!-- Folder Tree -->
  <g transform="translate(70, 440)">
    <!-- Root folder -->
    <rect x="0" y="0" width="120" height="25" rx="3" ry="3" fill="#ddd" stroke="#999" stroke-width="1"/>
    <text x="60" y="17" font-family="Arial" font-size="12" text-anchor="middle" fill="#333">model-registry/</text>
    
    <!-- Level 1 folders -->
    <line x1="60" y1="25" x2="60" y2="40" stroke="#999" stroke-width="1"/>
    
    <!-- database folder -->
    <line x1="60" y1="40" x2="20" y2="40" stroke="#999" stroke-width="1"/>
    <rect x="20" y="40" width="100" height="25" rx="3" ry="3" fill="#ddd" stroke="#999" stroke-width="1"/>
    <text x="70" y="57" font-family="Arial" font-size="12" text-anchor="middle" fill="#333">database/</text>
    
    <!-- Level 2 under database -->
    <line x1="70" y1="65" x2="70" y2="80" stroke="#999" stroke-width="1"/>
    
    <!-- schema folder -->
    <line x1="70" y1="80" x2="30" y2="80" stroke="#999" stroke-width="1"/>
    <rect x="30" y="80" width="80" height="25" rx="3" ry="3" fill="#ddd" stroke="#999" stroke-width="1"/>
    <text x="70" y="97" font-family="Arial" font-size="12" text-anchor="middle" fill="#333">schema/</text>
    
    <!-- Level 3 under schema -->
    <line x1="70" y1="105" x2="70" y2="120" stroke="#999" stroke-width="1"/>
    
    <!-- Model registry files -->
    <line x1="70" y1="120" x2="40" y2="120" stroke="#999" stroke-width="1"/>
    <rect x="40" y="120" width="170" height="25" rx="3" ry="3" fill="#b3cde3" stroke="#4682b4" stroke-width="1"/>
    <text x="125" y="137" font-family="Arial" font-size="12" text-anchor="middle" fill="#333">01-11: Model Registry Tables</text>
    
    <!-- Feature store files -->
    <line x1="70" y1="120" x2="40" y2="150" stroke="#999" stroke-width="1"/>
    <rect x="40" y="150" width="170" height="25" rx="3" ry="3" fill="#c2e699" stroke="#228b22" stroke-width="1"/>
    <text x="125" y="167" font-family="Arial" font-size="12" text-anchor="middle" fill="#333">12-19: Feature Store Tables</text>
    
    <!-- Other database folders -->
    <line x1="70" y1="80" x2="30" y2="185" stroke="#999" stroke-width="1"/>
    <rect x="30" y="185" width="150" height="25" rx="3" ry="3" fill="#ddd" stroke="#999" stroke-width="1"/>
    <text x="105" y="202" font-family="Arial" font-size="12" text-anchor="middle" fill="#333">views/, procedures/, etc.</text>
    
    <!-- Feature store additions -->
    <line x1="180" y1="185" x2="200" y2="185" stroke="#999" stroke-width="1"/>
    <rect x="200" y="185" width="170" height="25" rx="3" ry="3" fill="#c2e699" stroke="#228b22" stroke-width="1"/>
    <text x="285" y="202" font-family="Arial" font-size="12" text-anchor="middle" fill="#333">+ Feature Store Components</text>
    
    <!-- Other root level folders -->
    <line x1="60" y1="40" x2="20" y2="220" stroke="#999" stroke-width="1"/>
    <rect x="20" y="220" width="100" height="25" rx="3" ry="3" fill="#ddd" stroke="#999" stroke-width="1"/>
    <text x="70" y="237" font-family="Arial" font-size="12" text-anchor="middle" fill="#333">api/, docs/, etc.</text>
    
    <!-- Feature store additions -->
    <line x1="120" y1="220" x2="140" y2="220" stroke="#999" stroke-width="1"/>
    <rect x="140" y="220" width="170" height="25" rx="3" ry="3" fill="#c2e699" stroke="#228b22" stroke-width="1"/>
    <text x="225" y="237" font-family="Arial" font-size="12" text-anchor="middle" fill="#333">+ Feature Store Components</text>
  </g>
  
  <!-- Component relationship diagram -->
  <g transform="translate(400, 440)">
    <text x="0" y="17" font-family="Arial" font-size="14" font-weight="bold" fill="#333">Data Flow &amp; Component Relationships</text>
    
    <!-- Data Sources -->
    <rect x="0" y="40" width="120" height="50" rx="5" ry="5" fill="#f5f5f5" stroke="#999" stroke-width="1"/>
    <text x="60" y="70" font-family="Arial" font-size="12" text-anchor="middle" fill="#333">Data Sources</text>
    
    <!-- Feature Store -->
    <rect x="180" y="40" width="120" height="50" rx="5" ry="5" fill="#c2e699" stroke="#228b22" stroke-width="1"/>
    <text x="240" y="65" font-family="Arial" font-size="12" text-anchor="middle" font-weight="bold" fill="#333">Feature Store</text>
    <text x="240" y="80" font-family="Arial" font-size="10" text-anchor="middle" fill="#333">(New Component)</text>
    
    <!-- Model Registry -->
    <rect x="360" y="40" width="120" height="50" rx="5" ry="5" fill="#b3cde3" stroke="#4682b4" stroke-width="1"/>
    <text x="420" y="70" font-family="Arial" font-size="12" text-anchor="middle" font-weight="bold" fill="#333">Model Registry</text>
    
    <!-- Model Serving -->
    <rect x="270" y="140" width="120" height="50" rx="5" ry="5" fill="#ffd8b1" stroke="#e69138" stroke-width="1"/>
    <text x="330" y="170" font-family="Arial" font-size="12" text-anchor="middle" fill="#333">Model Serving</text>
    
    <!-- Flow arrows -->
    <path d="M120 65 L180 65" stroke="#999" stroke-width="2" />
    <polygon points="170,60 180,65 170,70" fill="#999"/>
    
    <path d="M300 65 L360 65" stroke="#9c3" stroke-width="2" />
    <polygon points="350,60 360,65 350,70" fill="#9c3"/>
    
    <path d="M420 90 L420 115 L330 140" stroke="#4682b4" stroke-width="2" />
    <polygon points="335,135 330,140 325,130" fill="#4682b4"/>
    
    <path d="M240 90 L240 115 L270 165" stroke="#228b22" stroke-width="2" />
    <polygon points="265,155 270,165 260,160" fill="#228b22"/>
    
    <!-- Explanation -->
    <text x="0" y="220" font-family="Arial" font-size="12" fill="#333">
        • Feature Store component maintains feature definitions, transformations, and values
    </text>
    <text x="0" y="240" font-family="Arial" font-size="12" fill="#333">
        • FEATURE_MODEL_MAPPING links features with models for traceability
    </text>
    <text x="0" y="260" font-family="Arial" font-size="12" fill="#333">
        • Features are used in model training and later in serving
    </text>
  </g>
</svg>
